# xmcd CD Database Entry
#
# Track frame offsets:
# 150
# 20044
# 34549
# 46903
# 61863
# 76729
# 93455
# 107484
# 124454
# 140219
# 157176
# 177607
# 201492
#
# Disc length: 2798 seconds
#
# Revision: 3
# Processed by: cddbd v1.4b41PL1 Copyright (c) Steve Scherf et al.
# Submitted via: tcd 2.0b
#
DISCID=ba0aec0d
DTITLE=Kathy Troccoli/A Sentimental Christmas
DYEAR=1900
DGENRE=
TTITLE0=White Christmas
TTITLE1=It's The Most Wonderful Time Of The Year
TTITLE2=O Little Town of Bethlehem/Away In A Manger
TTITLE3=Only Always
TTITLE4=Winter Wonderland
TTITLE5=What Child Is This
TTITLE6=Let It Snow
TTITLE7=I'll Be Home For Christmas
TTITLE8=The Christmas Song
TTITLE9=Sleigh Ride
TTITLE10=Slient Night
TTITLE11=Have Yourseld A Merry Little Christmas
TTITLE12=data
EXTD=
EXTT0=
EXTT1=
EXTT2=
EXTT3=
EXTT4=
EXTT5=
EXTT6=
EXTT7=
EXTT8=
EXTT9=
EXTT10=
EXTT11=
EXTT12=
PLAYORDER=
